<svg viewBox="0 0 200 200" xmlns="http://www.w3.org/2000/svg">
  <g stroke="black" stroke-width="3" fill="none">
      <rect x="20" y="20" width="40" height="40"/>
      <rect x="20" y="70" width="40" height="40"/>
      <rect x="20" y="120" width="40" height="40"/>
      <rect x="70" y="20" width="40" height="40"/>
      <rect x="70" y="120" width="40" height="40"/>
    </g>
    <g stroke="gray" stroke-width="2" fill="none">
      <polygon points="60,20 80,10 120,10 100,20"/>
      <polygon points="60,60 80,50 80,10 60,20"/>
      <polygon points="60,110 80,100 80,50 60,60"/>
      <polygon points="60,160 80,150 80,100 60,110"/>
      <polygon points="110,20 130,10 130,50 110,60"/>
      <polygon points="110,160 130,150 130,100 110,110"/>
    </g>
</svg>